<?xml version="1.0" encoding="UTF-8"?>
<svg xmlns="http://www.w3.org/2000/svg" xmlns:xlink="http://www.w3.org/1999/xlink" width="375pt" height="374.999991pt" viewBox="0 0 375 374.999991" version="1.2">
<defs>
<clipPath id="clip1">
  <path d="M 18.757812 18.734375 L 356.257812 18.734375 L 356.257812 356.234375 L 18.757812 356.234375 Z M 18.757812 18.734375 "/>
</clipPath>
<clipPath id="clip2">
  <path d="M 98.324219 90.929688 L 276.671875 90.929688 L 276.671875 280 L 98.324219 280 Z M 98.324219 90.929688 "/>
</clipPath>
<clipPath id="clip3">
  <path d="M 130 121 L 247 121 L 247 238 L 130 238 Z M 130 121 "/>
</clipPath>
<clipPath id="clip4">
  <path d="M 148.308594 95.914062 L 272.1875 139.289062 L 229.558594 261.039062 L 105.679688 217.667969 Z M 148.308594 95.914062 "/>
</clipPath>
<clipPath id="clip5">
  <path d="M 148.308594 95.914062 L 272.1875 139.289062 L 229.558594 261.039062 L 105.679688 217.667969 Z M 148.308594 95.914062 "/>
</clipPath>
</defs>
<g id="surface1">
<g clip-path="url(#clip1)" clip-rule="nonzero">
<path style=" stroke:none;fill-rule:nonzero;fill:rgb(100%,100%,100%);fill-opacity:1;" d="M 345.007812 187.484375 C 345.007812 274.34375 274.367188 344.984375 187.507812 344.984375 C 100.652344 344.984375 30.007812 274.34375 30.007812 187.484375 C 30.007812 100.628906 100.652344 29.984375 187.507812 29.984375 C 274.367188 29.984375 345.007812 100.628906 345.007812 187.484375 Z M 18.757812 187.484375 C 18.757812 280.539062 94.453125 356.234375 187.507812 356.234375 C 280.5625 356.234375 356.257812 280.539062 356.257812 187.484375 C 356.257812 94.429688 280.5625 18.734375 187.507812 18.734375 C 94.453125 18.734375 18.757812 94.429688 18.757812 187.484375 "/>
</g>
<path style=" stroke:none;fill-rule:nonzero;fill:rgb(100%,100%,100%);fill-opacity:1;" d="M 41.257812 187.484375 C 41.257812 268.125 106.871094 333.734375 187.507812 333.734375 L 187.507812 322.484375 C 113.066406 322.484375 52.507812 261.929688 52.507812 187.484375 L 41.257812 187.484375 "/>
<path style=" stroke:none;fill-rule:nonzero;fill:rgb(100%,100%,100%);fill-opacity:1;" d="M 322.507812 187.484375 L 333.757812 187.484375 C 333.757812 106.84375 268.148438 41.234375 187.507812 41.234375 L 187.507812 52.484375 C 261.953125 52.484375 322.507812 113.042969 322.507812 187.484375 "/>
<path style=" stroke:none;fill-rule:nonzero;fill:rgb(100%,100%,100%);fill-opacity:1;" d="M 300.007812 187.484375 L 311.257812 187.484375 C 311.257812 119.238281 255.757812 63.734375 187.507812 63.734375 L 187.507812 74.984375 C 249.539062 74.984375 300.007812 125.457031 300.007812 187.484375 "/>
<path style=" stroke:none;fill-rule:nonzero;fill:rgb(100%,100%,100%);fill-opacity:1;" d="M 187.507812 254.984375 C 150.289062 254.984375 120.007812 224.707031 120.007812 187.484375 C 120.007812 150.261719 150.289062 119.984375 187.507812 119.984375 C 224.730469 119.984375 255.007812 150.261719 255.007812 187.484375 C 255.007812 224.707031 224.730469 254.984375 187.507812 254.984375 Z M 187.507812 108.734375 C 144.089844 108.734375 108.757812 144.066406 108.757812 187.484375 C 108.757812 230.902344 144.089844 266.234375 187.507812 266.234375 C 230.925781 266.234375 266.257812 230.902344 266.257812 187.484375 C 266.257812 144.066406 230.925781 108.734375 187.507812 108.734375 "/>
<path style=" stroke:none;fill-rule:nonzero;fill:rgb(100%,100%,100%);fill-opacity:1;" d="M 187.507812 226.859375 C 165.800781 226.859375 148.132812 209.195312 148.132812 187.484375 C 148.132812 165.777344 165.800781 148.109375 187.507812 148.109375 C 209.21875 148.109375 226.882812 165.777344 226.882812 187.484375 C 226.882812 209.195312 209.21875 226.859375 187.507812 226.859375 Z M 187.507812 136.859375 C 159.605469 136.859375 136.882812 159.578125 136.882812 187.484375 C 136.882812 215.390625 159.605469 238.109375 187.507812 238.109375 C 215.414062 238.109375 238.132812 215.390625 238.132812 187.484375 C 238.132812 159.578125 215.414062 136.859375 187.507812 136.859375 "/>
<path style=" stroke:none;fill-rule:nonzero;fill:rgb(100%,100%,100%);fill-opacity:1;" d="M 187.507812 198.734375 C 181.3125 198.734375 176.257812 193.679688 176.257812 187.484375 C 176.257812 181.289062 181.3125 176.234375 187.507812 176.234375 C 193.707031 176.234375 198.757812 181.289062 198.757812 187.484375 C 198.757812 193.679688 193.707031 198.734375 187.507812 198.734375 Z M 187.507812 164.984375 C 175.09375 164.984375 165.007812 175.070312 165.007812 187.484375 C 165.007812 199.898438 175.09375 209.984375 187.507812 209.984375 C 199.921875 209.984375 210.007812 199.898438 210.007812 187.484375 C 210.007812 175.070312 199.921875 164.984375 187.507812 164.984375 "/>
<path style=" stroke:none;fill-rule:nonzero;fill:rgb(100%,100%,100%);fill-opacity:1;" d="M 210.007812 333.734375 L 210.007812 322.484375 L 198.757812 322.484375 L 198.757812 333.734375 L 210.007812 333.734375 "/>
<g clip-path="url(#clip2)" clip-rule="nonzero">
<path style=" stroke:none;fill-rule:nonzero;fill:rgb(100%,100%,100%);fill-opacity:1;" d="M 127.78125 246.433594 C 109.816406 230.09375 98.527344 206.496094 98.527344 180.261719 C 98.527344 130.933594 138.40625 90.949219 187.597656 90.949219 C 236.789062 90.949219 276.664062 130.933594 276.664062 180.261719 C 276.664062 229.585938 236.789062 269.570312 187.597656 269.570312 C 177.722656 269.570312 168.234375 267.9375 159.359375 264.960938 C 139.917969 284.449219 108.230469 279.300781 108.230469 279.300781 C 108.230469 279.300781 120.789062 272.519531 127.78125 246.433594 "/>
</g>
<g clip-path="url(#clip3)" clip-rule="nonzero">
<g clip-path="url(#clip4)" clip-rule="nonzero">
<g clip-path="url(#clip5)" clip-rule="nonzero">
<path style=" stroke:none;fill-rule:nonzero;fill:rgb(18.03894%,18.03894%,18.03894%);fill-opacity:1;" d="M 224.472656 214.019531 L 236.570312 214.183594 C 237.847656 214.214844 239.0625 213.953125 240.210938 213.394531 C 241.363281 212.832031 242.320312 212.039062 243.082031 211.007812 C 248.984375 202.835938 243.34375 193.886719 235.503906 193.785156 L 225.292969 193.660156 C 224.871094 193.65625 224.464844 193.570312 224.074219 193.402344 C 223.683594 193.234375 223.34375 193 223.046875 192.695312 C 222.753906 192.390625 222.527344 192.039062 222.371094 191.644531 C 222.214844 191.25 222.140625 190.839844 222.148438 190.417969 L 222.402344 170.195312 C 222.40625 169.769531 222.496094 169.363281 222.660156 168.972656 C 222.828125 168.582031 223.066406 168.242188 223.371094 167.945312 C 223.675781 167.648438 224.023438 167.425781 224.417969 167.269531 C 224.8125 167.113281 225.222656 167.039062 225.644531 167.042969 L 235.847656 167.1875 C 243.636719 167.296875 249.515625 158.589844 243.996094 150.300781 C 243.238281 149.214844 242.273438 148.367188 241.097656 147.757812 C 239.925781 147.152344 238.675781 146.847656 237.351562 146.855469 L 225.402344 146.671875 C 225.050781 146.667969 224.707031 146.597656 224.382812 146.457031 C 224.054688 146.316406 223.769531 146.121094 223.519531 145.867188 C 223.273438 145.613281 223.082031 145.320312 222.949219 144.988281 C 222.820312 144.660156 222.757812 144.316406 222.761719 143.960938 L 222.925781 132.757812 C 223.039062 124.960938 214.34375 119.082031 206.058594 124.613281 C 204.972656 125.371094 204.125 126.335938 203.515625 127.511719 C 202.90625 128.6875 202.605469 129.9375 202.609375 131.261719 L 202.457031 143.113281 C 202.453125 143.539062 202.363281 143.945312 202.195312 144.335938 C 202.03125 144.726562 201.792969 145.066406 201.488281 145.363281 C 201.183594 145.660156 200.835938 145.886719 200.441406 146.042969 C 200.046875 146.199219 199.636719 146.273438 199.214844 146.265625 L 177.914062 145.949219 C 177.488281 145.945312 177.082031 145.859375 176.695312 145.691406 C 176.304688 145.523438 175.960938 145.289062 175.667969 144.984375 C 175.371094 144.679688 175.144531 144.328125 174.992188 143.933594 C 174.835938 143.539062 174.761719 143.128906 174.769531 142.707031 L 174.917969 132.019531 C 175.03125 124.226562 166.335938 118.347656 158.050781 123.875 C 156.964844 124.632812 156.117188 125.601562 155.507812 126.777344 C 154.898438 127.953125 154.597656 129.203125 154.601562 130.527344 L 154.433594 142.96875 C 154.4375 143.328125 154.375 143.679688 154.238281 144.011719 C 154.101562 144.347656 153.90625 144.644531 153.652344 144.902344 C 153.394531 145.15625 153.101562 145.351562 152.765625 145.488281 C 152.429688 145.625 152.082031 145.691406 151.722656 145.683594 L 139.695312 145.523438 C 138.394531 145.558594 137.160156 145.863281 135.992188 146.433594 C 134.824219 147.007812 133.828125 147.792969 133.003906 148.800781 C 128.21875 155.671875 131.421875 163.03125 137.21875 165.230469 C 138.324219 165.648438 139.46875 165.867188 140.652344 165.882812 L 150.863281 166.003906 C 151.285156 166.011719 151.691406 166.097656 152.082031 166.265625 C 152.472656 166.433594 152.8125 166.667969 153.109375 166.972656 C 153.40625 167.277344 153.628906 167.628906 153.785156 168.023438 C 153.941406 168.417969 154.015625 168.824219 154.007812 169.25 L 153.789062 189.507812 C 153.785156 189.933594 153.699219 190.339844 153.53125 190.730469 C 153.363281 191.121094 153.125 191.460938 152.820312 191.757812 C 152.515625 192.054688 152.167969 192.28125 151.773438 192.4375 C 151.378906 192.59375 150.96875 192.667969 150.546875 192.660156 L 139.035156 192.511719 C 137.738281 192.546875 136.503906 192.851562 135.335938 193.421875 C 134.167969 193.996094 133.171875 194.785156 132.347656 195.789062 C 127.5625 202.660156 130.765625 210.019531 136.5625 212.21875 C 137.679688 212.644531 138.839844 212.867188 140.039062 212.886719 L 150.765625 213.023438 C 151.121094 213.027344 151.460938 213.097656 151.789062 213.238281 C 152.117188 213.378906 152.402344 213.574219 152.652344 213.828125 C 152.898438 214.085938 153.089844 214.375 153.21875 214.707031 C 153.351562 215.035156 153.414062 215.378906 153.410156 215.734375 L 153.246094 226.941406 C 153.226562 227.988281 153.367188 229.015625 153.667969 230.019531 C 153.96875 231.023438 154.414062 231.957031 155 232.824219 C 155.589844 233.691406 156.296875 234.449219 157.117188 235.097656 C 157.941406 235.746094 158.839844 236.253906 159.820312 236.625 C 160.667969 236.921875 161.539062 237.117188 162.433594 237.207031 C 163.328125 237.296875 164.222656 237.277344 165.113281 237.152344 C 166.003906 237.027344 166.867188 236.796875 167.703125 236.464844 C 168.539062 236.132812 169.320312 235.703125 170.054688 235.183594 C 170.601562 234.8125 171.09375 234.382812 171.535156 233.890625 C 171.972656 233.398438 172.347656 232.863281 172.65625 232.277344 C 172.964844 231.695312 173.199219 231.082031 173.355469 230.441406 C 173.511719 229.800781 173.589844 229.152344 173.585938 228.492188 L 173.71875 216.632812 C 173.726562 216.207031 173.8125 215.800781 173.980469 215.410156 C 174.148438 215.019531 174.382812 214.679688 174.6875 214.382812 C 174.992188 214.085938 175.34375 213.859375 175.738281 213.703125 C 176.128906 213.546875 176.539062 213.472656 176.964844 213.480469 L 198.261719 213.796875 C 198.6875 213.800781 199.09375 213.886719 199.484375 214.054688 C 199.871094 214.222656 200.214844 214.457031 200.511719 214.761719 C 200.804688 215.066406 201.03125 215.417969 201.1875 215.8125 C 201.34375 216.207031 201.417969 216.617188 201.410156 217.039062 L 201.257812 227.726562 C 201.246094 228.769531 201.386719 229.792969 201.6875 230.792969 C 201.988281 231.796875 202.433594 232.726562 203.019531 233.589844 C 203.605469 234.453125 204.308594 235.210938 205.128906 235.855469 C 205.949219 236.503906 206.847656 237.011719 207.824219 237.382812 C 208.691406 237.679688 209.582031 237.863281 210.496094 237.9375 C 211.410156 238.011719 212.320312 237.972656 213.226562 237.820312 C 214.132812 237.664062 215.003906 237.402344 215.84375 237.035156 C 216.683594 236.664062 217.464844 236.195312 218.1875 235.628906 C 219.253906 234.878906 220.089844 233.929688 220.691406 232.773438 C 221.292969 231.617188 221.59375 230.386719 221.597656 229.085938 L 221.769531 216.644531 C 221.773438 216.289062 221.847656 215.953125 221.988281 215.628906 C 222.128906 215.304688 222.324219 215.019531 222.578125 214.773438 C 222.832031 214.527344 223.121094 214.339844 223.449219 214.207031 C 223.777344 214.078125 224.117188 214.015625 224.472656 214.019531 Z M 197.648438 193.339844 L 178.257812 193.074219 C 177.980469 193.070312 177.710938 193.042969 177.441406 192.984375 C 177.171875 192.929688 176.910156 192.847656 176.660156 192.738281 C 176.40625 192.632812 176.167969 192.5 175.941406 192.34375 C 175.714844 192.191406 175.503906 192.015625 175.3125 191.816406 C 175.121094 191.621094 174.949219 191.40625 174.800781 191.175781 C 174.648438 190.945312 174.523438 190.703125 174.421875 190.449219 C 174.320312 190.191406 174.246094 189.929688 174.195312 189.660156 C 174.144531 189.390625 174.121094 189.117188 174.125 188.84375 L 174.398438 170.53125 C 174.402344 170.261719 174.429688 169.992188 174.484375 169.726562 C 174.539062 169.460938 174.617188 169.203125 174.722656 168.953125 C 174.828125 168.699219 174.957031 168.464844 175.105469 168.238281 C 175.257812 168.011719 175.429688 167.804688 175.621094 167.613281 C 175.8125 167.417969 176.019531 167.246094 176.246094 167.097656 C 176.472656 166.945312 176.710938 166.816406 176.960938 166.710938 C 177.210938 166.605469 177.46875 166.527344 177.734375 166.472656 C 178 166.417969 178.265625 166.386719 178.539062 166.386719 L 197.933594 166.628906 C 198.210938 166.632812 198.480469 166.660156 198.75 166.71875 C 199.019531 166.773438 199.28125 166.855469 199.53125 166.964844 C 199.785156 167.070312 200.023438 167.203125 200.25 167.359375 C 200.476562 167.515625 200.6875 167.691406 200.878906 167.886719 C 201.070312 168.082031 201.242188 168.296875 201.390625 168.527344 C 201.542969 168.757812 201.667969 169 201.769531 169.253906 C 201.871094 169.511719 201.949219 169.773438 201.996094 170.042969 C 202.046875 170.3125 202.070312 170.585938 202.066406 170.863281 L 201.808594 189.128906 C 201.808594 189.40625 201.785156 189.675781 201.734375 189.945312 C 201.679688 190.21875 201.605469 190.480469 201.5 190.734375 C 201.394531 190.988281 201.269531 191.230469 201.117188 191.460938 C 200.964844 191.691406 200.792969 191.902344 200.601562 192.097656 C 200.40625 192.292969 200.195312 192.46875 199.96875 192.621094 C 199.742188 192.777344 199.5 192.90625 199.246094 193.011719 C 198.992188 193.121094 198.730469 193.199219 198.460938 193.253906 C 198.195312 193.308594 197.921875 193.339844 197.648438 193.339844 Z M 197.648438 193.339844 "/>
</g>
</g>
</g>
</g>
</svg>
